<?xml version="1.0" standalone="no"?>
<!DOCTYPE svg PUBLIC "-//W3C//DTD SVG 20010904//EN"
 "http://www.w3.org/TR/2001/REC-SVG-20010904/DTD/svg10.dtd">
<svg version="1.0" xmlns="http://www.w3.org/2000/svg"
 width="300.000000pt" height="140.000000pt" viewBox="0 0 300.000000 140.000000"
 preserveAspectRatio="xMidYMid meet">
<metadata>
Created by potrace 1.10, written by Peter Selinger 2001-2011
</metadata>
<g transform="translate(0.000000,140.000000) scale(0.100000,-0.100000)"
fill="#000000" stroke="none">
<path d="M1730 948 c0 -13 16 -47 35 -75 19 -29 35 -55 35 -58 0 -9 79 -123
90 -130 14 -9 -4 36 -35 85 -14 22 -22 40 -19 40 4 0 1 7 -6 15 -7 8 -9 15 -5
15 4 0 1 8 -6 17 -13 15 -12 16 9 11 19 -5 21 -4 11 8 -7 8 -18 13 -25 10 -6
-2 -22 7 -35 20 -21 22 -21 24 -4 18 19 -8 19 -7 4 16 -22 34 -49 38 -49 8z"/>
<path d="M1875 940 c-8 -13 59 -139 87 -163 20 -16 23 -17 37 -2 15 15 14 18
-8 36 -19 16 -22 22 -12 28 10 6 10 10 1 16 -6 4 -14 4 -17 1 -3 -3 -14 5 -23
17 -10 12 -14 24 -9 27 12 8 -19 50 -36 50 -8 0 -17 -5 -20 -10z"/>
<path d="M975 919 c-4 -12 -8 -33 -10 -48 -6 -70 -19 -132 -26 -137 -5 -3 -9
-15 -9 -27 1 -17 5 -13 20 17 11 22 20 47 20 56 0 9 9 35 20 58 11 22 20 47
20 54 0 9 3 9 10 -2 14 -21 13 5 0 31 -14 25 -37 24 -45 -2z"/>
<path d="M1653 893 c-29 -11 -4 -65 122 -264 36 -56 65 -109 65 -118 0 -9 9
-34 19 -56 15 -31 20 -35 20 -18 1 12 -4 25 -10 28 -6 4 -8 13 -5 21 3 7 1 16
-3 18 -5 3 -11 19 -15 36 -3 17 -17 46 -31 64 -14 18 -25 36 -25 40 0 4 -11
24 -25 44 -14 20 -25 45 -25 54 0 10 -4 18 -9 18 -5 0 -11 8 -14 18 -3 9 -16
32 -28 51 -19 29 -20 34 -6 28 20 -8 21 1 3 26 -14 18 -14 18 -33 10z"/>
<path d="M920 879 c0 -5 -11 -34 -24 -62 -13 -29 -27 -63 -30 -77 -3 -14 10 8
29 49 19 41 40 80 46 88 9 10 8 13 -5 13 -9 0 -16 -5 -16 -11z"/>
<path d="M1176 808 c-13 -13 -30 -24 -37 -26 -25 -6 -134 -135 -151 -179 -9
-24 -12 -43 -7 -43 5 0 9 5 9 12 0 15 57 106 89 141 34 37 46 15 15 -31 -29
-43 -20 -59 10 -18 11 16 42 54 69 83 26 29 47 57 47 63 0 20 -21 20 -44 -2z"/>
<path d="M2091 813 c0 -10 6 -47 13 -83 10 -50 16 -65 29 -64 19 2 23 -11 7
-21 -6 -4 -7 -13 -1 -23 12 -23 16 -73 6 -95 -5 -11 -2 -24 9 -36 9 -9 21 -32
27 -50 16 -45 21 -33 10 25 -17 87 -21 145 -11 139 15 -9 14 -3 -18 95 -2 8
-5 25 -6 38 -1 13 -8 27 -15 31 -7 5 -12 11 -11 15 1 4 0 15 -3 26 -6 25 -37
27 -36 3z"/>
<path d="M2020 708 c0 -10 0 -21 0 -25 0 -4 6 -8 15 -9 19 -3 19 7 0 32 -13
17 -14 17 -15 2z"/>
<path d="M2047 654 c-3 -4 -3 -12 0 -18 10 -15 15 -36 16 -71 2 -32 45 -112
72 -135 11 -9 8 4 -10 41 -13 30 -29 77 -35 105 -11 54 -31 90 -43 78z"/>
<path d="M816 619 c-9 -36 -11 -112 -7 -224 5 -115 7 -103 20 90 5 77 5 144 1
149 -5 5 -11 -1 -14 -15z"/>
<path d="M1057 573 c-10 -31 -16 -58 -13 -60 10 -10 37 60 34 87 -3 24 -5 21
-21 -27z"/>
<path d="M1210 518 c-23 -38 -28 -75 -6 -45 17 22 41 22 65 -2 19 -19 20 -19
18 27 -2 43 -4 47 -29 50 -22 3 -32 -3 -48 -30z"/>
<path d="M1566 524 c-3 -8 4 -29 17 -45 19 -26 23 -28 26 -12 5 30 23 45 48
40 31 -6 29 -1 -7 18 -37 19 -76 19 -84 -1z"/>
<path d="M1716 450 c38 -41 57 -54 33 -22 -28 37 -53 62 -61 62 -5 0 8 -18 28
-40z"/>
<path d="M2046 482 c-3 -5 8 -22 25 -38 l31 -29 -22 38 c-23 40 -26 42 -34 29z"/>
<path d="M1154 376 c-18 -42 -26 -72 -19 -66 8 7 19 28 26 48 6 20 16 42 21
49 5 7 8 20 6 29 -2 9 -17 -18 -34 -60z"/>
<path d="M1620 419 c6 -11 29 -37 51 -56 22 -20 50 -55 62 -78 26 -48 149
-164 201 -189 20 -10 53 -31 72 -48 19 -17 38 -28 41 -24 11 10 -47 61 -98 86
-52 26 -199 167 -199 192 0 18 -98 121 -125 131 -13 6 -14 3 -5 -14z"/>
<path d="M1261 421 c-17 -11 -61 -119 -61 -152 0 -14 -8 -43 -19 -65 -10 -21
-21 -52 -24 -69 -3 -16 -8 -39 -12 -50 -4 -14 -2 -13 9 5 8 14 15 32 16 40 0
9 9 33 20 55 11 22 20 54 20 71 0 18 16 63 35 100 36 69 39 79 16 65z"/>
<path d="M2147 383 c3 -10 12 -25 18 -33 7 -8 20 -28 28 -45 13 -25 16 -26 17
-9 0 11 -14 39 -31 62 -33 45 -42 52 -32 25z"/>
<path d="M2100 353 c0 -10 59 -93 66 -93 2 0 -4 17 -15 38 -20 39 -51 72 -51
55z"/>
<path d="M2237 294 c-4 -4 -4 -18 0 -32 4 -17 2 -23 -6 -18 -34 22 4 -42 58
-95 55 -54 111 -124 111 -138 0 -6 9 -11 20 -11 17 0 15 6 -18 52 -20 28 -50
64 -67 80 -63 58 -95 93 -95 101 0 4 4 6 8 3 4 -2 6 11 4 30 -4 36 -5 38 -15
28z"/>
<path d="M833 224 c-3 -8 -1 -39 5 -67 l10 -52 -1 68 c0 68 -3 79 -14 51z"/>
<path d="M814 100 c0 -58 1 -81 3 -53 2 29 2 77 0 105 -2 29 -3 6 -3 -52z"/>
</g>
</svg>
